<svg xmlns="http://www.w3.org/2000/svg" viewBox="0 0 32 32" width="32" height="32">
  <!-- Achtergrondtegel -->
  <rect x="0" y="0" width="32" height="32" rx="7" fill="#1F3F37"/>
  <!-- Subtiele gouden binnenrand (knipoog naar het stempel) -->
  <rect x="2.5" y="2.5" width="27" height="27" rx="5.5" fill="none" stroke="#DFA33C" stroke-width="1" opacity="0.35"/>

  <!-- Pootje in Mollie-goud -->
  <g fill="#DFA33C">
    <!-- Hoofdkussen -->
    <path d="M16 12.4c3.7 0 6.7 3 6.7 6a3.5 3.5 0 0 1-3.7 3.4c-1.1 0-2-.5-3-.5s-1.9.5-3 .5A3.5 3.5 0 0 1 9.3 18.4c0-3 3-6 6.7-6z"/>
    <!-- Teentjes -->
    <ellipse cx="8.7"  cy="12.6" rx="2.15" ry="2.75" transform="rotate(-18 8.7 12.6)"/>
    <ellipse cx="13.3" cy="9.5"  rx="2.35" ry="3.05"/>
    <ellipse cx="18.7" cy="9.5"  rx="2.35" ry="3.05"/>
    <ellipse cx="23.3" cy="12.6" rx="2.15" ry="2.75" transform="rotate(18 23.3 12.6)"/>
  </g>
</svg>
